<svg width="80" height="80" viewBox="0 0 80 80" fill="none" xmlns="http://www.w3.org/2000/svg">
<path d="M20 68.0011H1.33328C0.595937 68.0011 0 68.5984 0 69.3344C0 70.0703 0.595937 70.6676 1.33328 70.6676H20C20.7373 70.6676 21.3333 70.0703 21.3333 69.3344C21.3333 68.5984 20.7373 68.0011 20 68.0011Z" fill="#D4C17F"/>
<path d="M16 65.3317C24.8226 65.3317 32 58.153 32 49.3317C32 44.9144 30.2386 40.8011 27.04 37.7491C26.5094 37.2423 25.6626 37.2623 25.1547 37.7931C24.6467 38.3264 24.6667 39.1705 25.1987 39.6784C27.8641 42.2225 29.3334 45.6491 29.3334 49.3317C29.3334 56.6837 23.352 62.665 16.0001 62.665C8.64828 62.665 2.66687 56.6836 2.66687 49.3317C2.66687 41.9784 8.64828 35.9984 16.0001 35.9984C16.7375 35.9984 17.3334 35.4011 17.3334 34.6651C17.3334 33.9278 16.7375 33.3319 16.0001 33.3319C7.1775 33.3319 0.00015259 40.5092 0.00015259 49.3319C-3.65953e-06 58.153 7.17734 65.3317 16 65.3317Z" fill="#D4C17F"/>
<path d="M22.6667 27.9983H23.3427L15.64 46.7009C14.3414 46.8783 13.3333 47.9836 13.3333 49.3316C13.3333 50.8022 14.5292 51.9983 16 51.9983C17.4706 51.9983 18.6667 50.8023 18.6667 49.3316C18.6667 48.7209 18.4534 48.1663 18.1067 47.7156L25.6308 29.4462L34.0695 41.6983C34.4855 42.305 35.3136 42.4595 35.9228 42.0409C36.5308 41.6223 36.6828 40.793 36.2642 40.1862L27.8695 27.9983H30.6669C32.8722 27.9983 34.6669 26.2036 34.6669 23.9983C34.6669 21.7916 32.8722 19.9983 30.6669 19.9983H22.6669C21.9295 19.9983 21.3336 20.5942 21.3336 21.3316V26.6648C21.3333 27.4011 21.9294 27.9983 22.6667 27.9983ZM24 22.665H30.6667C31.4027 22.665 32 23.2623 32 23.9983C32 24.733 31.4027 25.3316 30.6667 25.3316H24V22.665Z" fill="#D4C17F"/>
<path d="M62.6667 34.665C62.6667 35.4009 63.2627 35.9983 64 35.9983C71.352 35.9983 77.3333 41.9783 77.3333 49.3316C77.3333 56.6836 71.3519 62.6648 64 62.6648C56.6481 62.6648 50.6667 56.6834 50.6667 49.3316C50.6667 45.3356 52.4361 41.5848 55.5241 39.0383C56.0908 38.5703 56.172 37.7303 55.7027 37.1623C55.2347 36.5956 54.3959 36.5117 53.8253 36.9811C50.1239 40.0358 48 44.5358 48 49.3317C48 58.153 55.1773 65.3317 64 65.3317C72.8227 65.3317 80 58.153 80 49.3317C80 40.5091 72.8227 33.3317 64 33.3317C63.2627 33.3317 62.6667 33.9276 62.6667 34.665Z" fill="#D4C17F"/>
<path d="M41.3333 68.0011H28C27.2627 68.0011 26.6667 68.5984 26.6667 69.3344C26.6667 70.0703 27.2627 70.6676 28 70.6676H41.3333C42.0706 70.6676 42.6666 70.0703 42.6666 69.3344C42.6667 68.5984 42.0706 68.0011 41.3333 68.0011Z" fill="#D4C17F"/>
<path d="M41.3333 42.8544V38.665C42.0706 38.665 42.6666 38.0677 42.6666 37.3317C42.6666 36.5944 42.0706 35.9984 41.3333 35.9984H38.6666C37.9292 35.9984 37.3333 36.5944 37.3333 37.3317C37.3333 38.0677 37.9292 38.665 38.6666 38.665V42.8544C36.3719 43.4503 34.6666 45.5197 34.6666 47.9984C34.6666 50.4758 36.3719 52.5452 38.6666 53.1425V57.3319C37.9292 57.3319 37.3333 57.9278 37.3333 58.6652C37.3333 59.4011 37.9292 59.9984 38.6666 59.9984H41.3333C42.0706 59.9984 42.6666 59.4011 42.6666 58.6652C42.6666 57.9278 42.0706 57.3319 41.3333 57.3319V53.1425C43.628 52.5452 45.3333 50.4758 45.3333 47.9984C45.3333 45.5197 43.628 43.4503 41.3333 42.8544ZM40 50.665C38.5306 50.665 37.3333 49.4691 37.3333 47.9983C37.3333 46.5277 38.5306 45.3316 40 45.3316C41.4706 45.3316 42.6667 46.5275 42.6667 47.9983C42.6667 49.4691 41.4706 50.665 40 50.665Z" fill="#D4C17F"/>
<path d="M61.9453 47.6517C61.5694 48.1117 61.3333 48.6917 61.3333 49.3317C61.3333 50.8023 62.5306 51.9984 64 51.9984C65.4694 51.9984 66.6667 50.8025 66.6667 49.3317C66.6667 48.0117 65.7 46.9211 64.4414 46.7091L58.424 30.665H67.9426C69.5386 30.665 70.4667 29.3891 70.6412 28.2597L71.9733 21.593C72.0519 21.2009 71.9506 20.7944 71.6973 20.4862C71.444 20.1769 71.0667 19.9983 70.6667 19.9983H58.6667C57.9294 19.9983 57.3334 20.5942 57.3334 21.3316C57.3334 22.0675 57.9294 22.6648 58.6667 22.6648H69.04L68.0214 27.7662C68.0014 27.8583 67.944 27.9876 67.9428 27.9983H57.4242L53.2495 16.8636C53.2469 16.8583 53.2428 16.8556 53.2416 16.8503C53.2389 16.845 53.2401 16.8397 53.2389 16.8356L50.5722 10.1689C50.2989 9.48484 49.5162 9.15687 48.8389 9.42624C48.1548 9.69952 47.8216 10.4756 48.0948 11.1595L50.5242 17.2275L45.5095 26.0034C45.1428 26.6422 45.3655 27.4567 46.0055 27.8222C46.2134 27.9408 46.4414 27.9981 46.6655 27.9981C47.1295 27.9981 47.5787 27.7569 47.8241 27.3261L51.7494 20.4581L54.9573 29.0141L44.7959 40.4447C44.3053 40.9953 44.3559 41.838 44.9066 42.3273C45.1598 42.5541 45.4759 42.6647 45.7919 42.6647C46.1586 42.6647 46.5251 42.5127 46.7878 42.2167L56.0158 31.8367L61.9453 47.6517Z" fill="#D4C17F"/>
<path d="M78.6667 68.0011H57.3333C56.5959 68.0011 56 68.5984 56 69.3344C56 70.0703 56.5959 70.6676 57.3333 70.6676H78.6666C79.4039 70.6676 79.9998 70.0703 79.9998 69.3344C80 68.5984 79.4041 68.0011 78.6667 68.0011Z" fill="#D4C17F"/>
<path d="M52 68.0011H49.3333C48.5959 68.0011 48 68.5984 48 69.3344C48 70.0703 48.5959 70.6676 49.3333 70.6676H52C52.7373 70.6676 53.3333 70.0703 53.3333 69.3344C53.3333 68.5984 52.7373 68.0011 52 68.0011Z" fill="#D4C17F"/>
</svg>
