<svg width="20" height="20" viewBox="0 0 20 20" fill="none" xmlns="http://www.w3.org/2000/svg">
<path d="M14.9995 0.00416134L12.4059 0C9.49217 0 7.60917 1.9319 7.60917 4.92203V7.19141H5.00147C4.77613 7.19141 4.59366 7.37409 4.59366 7.59943V10.8875C4.59366 11.1128 4.77634 11.2953 5.00147 11.2953H7.60917V19.5922C7.60917 19.8175 7.79164 20 8.01698 20H11.4193C11.6446 20 11.8271 19.8173 11.8271 19.5922V11.2953H14.8761C15.1014 11.2953 15.2839 11.1128 15.2839 10.8875L15.2852 7.59943C15.2852 7.49123 15.2421 7.38762 15.1657 7.31105C15.0894 7.23448 14.9853 7.19141 14.8771 7.19141H11.8271V5.26763C11.8271 4.34298 12.0474 3.87358 13.2519 3.87358L14.9991 3.87295C15.2242 3.87295 15.4067 3.69027 15.4067 3.46514V0.411972C15.4067 0.187052 15.2244 0.00457747 14.9995 0.00416134Z" fill="white"/>
</svg>
