<svg width="80" height="80" viewBox="0 0 80 80" fill="none" xmlns="http://www.w3.org/2000/svg">
<g clip-path="url(#clip0)">
<path d="M53.3893 4.62187C53.5719 4.62187 53.756 4.58453 53.9333 4.50453C54.3146 4.33391 54.7013 4.1725 55.0933 4.02453C55.7827 3.76188 56.1293 2.9925 55.8666 2.30453C55.6052 1.61516 54.8346 1.27391 54.1479 1.52985C53.7065 1.69782 53.2705 1.87922 52.8426 2.07125C52.1705 2.37266 51.8693 3.16188 52.1719 3.83391C52.3933 4.32844 52.8787 4.62187 53.3893 4.62187Z" fill="#D4C17F"/>
<path d="M53.3333 33.5377C54.0707 33.5377 54.6666 32.9418 54.6666 32.2045V31.9738C54.6666 31.6232 54.6893 31.2792 54.7333 30.9406C54.8293 30.2099 54.3146 29.5406 53.5866 29.4446C52.8346 29.3487 52.1866 29.8632 52.0893 30.5926C52.0307 31.0432 51.9999 31.5085 51.9999 31.974V32.2046C52 32.9418 52.596 33.5377 53.3333 33.5377Z" fill="#D4C17F"/>
<path d="M46.6666 33.8671C47.404 33.8671 47.9999 33.2698 47.9999 32.5338V31.1792C47.9999 30.4432 47.404 29.8459 46.6666 29.8459C45.9293 29.8459 45.3333 30.4432 45.3333 31.1792V32.5338C45.3333 33.2698 45.9293 33.8671 46.6666 33.8671Z" fill="#D4C17F"/>
<path d="M54.3227 12.7778C53.8933 13.0137 53.4733 13.2684 53.0694 13.5392C52.4574 13.9486 52.2921 14.7778 52.7015 15.3898C52.9588 15.7739 53.3815 15.9804 53.8108 15.9804C54.0668 15.9804 54.3241 15.9084 54.5508 15.7551C54.8935 15.5271 55.2468 15.3125 55.6094 15.1125C56.2535 14.7578 56.4894 13.9457 56.1347 13.3018C55.7786 12.6565 54.9693 12.4245 54.3227 12.7778Z" fill="#D4C17F"/>
<path d="M35.4107 12.6419C35.6628 13.0445 36.096 13.2659 36.5401 13.2659C36.7828 13.2659 37.0281 13.2006 37.2468 13.0619C37.8709 12.6698 38.0601 11.8472 37.6682 11.2245C37.4162 10.8231 37.1549 10.4312 36.8803 10.0472C36.4523 9.44859 35.6217 9.30859 35.0203 9.73921C34.4203 10.1686 34.2829 11.0006 34.7109 11.5992C34.9546 11.9392 35.1881 12.2872 35.4107 12.6419Z" fill="#D4C17F"/>
<path d="M59.788 2.82187C59.8427 2.82187 59.9 2.8178 59.956 2.81124C60.368 2.75921 60.7854 2.71921 61.2066 2.68984C61.9425 2.64046 62.4972 2.00578 62.4493 1.27125C62.4013 0.536559 61.756 -0.0193774 61.0307 0.0298413C60.556 0.0604662 60.0866 0.107185 59.6227 0.165779C58.8921 0.25781 58.3733 0.924371 58.4668 1.65515C58.5507 2.32843 59.1254 2.82187 59.788 2.82187Z" fill="#D4C17F"/>
<path d="M54.844 24.7218C54.344 25.2618 54.3746 26.1059 54.9133 26.6059C55.1721 26.8445 55.496 26.9618 55.8213 26.9618C56.1799 26.9618 56.536 26.8192 56.7999 26.5351C57.0772 26.2365 57.3826 25.9537 57.7079 25.6951C58.2852 25.2365 58.3811 24.3978 57.9225 23.8218C57.4652 23.2459 56.6252 23.1471 56.0493 23.6071C55.6186 23.9484 55.2133 24.3245 54.844 24.7218Z" fill="#D4C17F"/>
<path d="M42.7519 13.0619C42.9719 13.2005 43.2173 13.2659 43.4599 13.2659C43.904 13.2659 44.3373 13.0445 44.5893 12.6419C44.8119 12.2872 45.0452 11.9392 45.2893 11.5992C45.7173 11.0006 45.5799 10.1686 44.9799 9.73921C44.3785 9.30859 43.5479 9.44859 43.1199 10.0472C42.8452 10.4312 42.5826 10.8231 42.3319 11.2245C41.9401 11.8472 42.1293 12.6698 42.7519 13.0619Z" fill="#D4C17F"/>
<path d="M53.3333 39.9738C54.0707 39.9738 54.6666 39.3765 54.6666 38.6405V37.9738C54.6666 37.2379 54.0707 36.6406 53.3333 36.6406C52.596 36.6406 52.0001 37.2379 52.0001 37.9738V38.6405C52.0001 39.3765 52.596 39.9738 53.3333 39.9738Z" fill="#D4C17F"/>
<path d="M46.6387 27.091C46.7001 27.1004 46.7601 27.1043 46.8201 27.1043C47.476 27.1043 48.0494 26.619 48.1413 25.9496C48.196 25.539 48.2693 25.1337 48.3599 24.7337C48.524 24.0151 48.0732 23.3017 47.3546 23.139C46.636 22.9764 45.9213 23.4257 45.7587 24.1443C45.6519 24.6203 45.564 25.1029 45.4973 25.591C45.3987 26.3204 45.9107 26.9924 46.6387 27.091Z" fill="#D4C17F"/>
<path d="M37.5613 17.1792C37.6946 17.5739 37.8146 17.9725 37.9254 18.3778C38.0868 18.971 38.6254 19.3618 39.2107 19.3618C39.3266 19.3618 39.444 19.3459 39.5613 19.3139C39.7266 19.2698 39.8707 19.1898 39.9999 19.0953C40.1293 19.1899 40.2732 19.2699 40.4385 19.3139C40.5559 19.3459 40.6732 19.3618 40.7891 19.3618C41.3745 19.3618 41.9132 18.9712 42.0745 18.3778C42.1851 17.9725 42.3038 17.5737 42.4385 17.1792C42.6771 16.4818 42.3026 15.7245 41.6065 15.4871C40.9665 15.2686 40.2918 15.5818 39.9998 16.1739C39.7077 15.5818 39.0331 15.2686 38.3931 15.4871C37.696 15.7245 37.3227 16.4818 37.5613 17.1792Z" fill="#D4C17F"/>
<path d="M47.7854 8.20842C48.096 8.20842 48.408 8.10045 48.6601 7.8817C48.976 7.60701 49.3001 7.34029 49.6307 7.08576C50.2147 6.63639 50.3227 5.80045 49.8747 5.21639C49.4254 4.63233 48.588 4.5217 48.0054 4.97233C47.6307 5.26029 47.2654 5.55904 46.9107 5.86967C46.3548 6.35232 46.296 7.19498 46.7801 7.75107C47.0427 8.05388 47.4133 8.20842 47.7854 8.20842Z" fill="#D4C17F"/>
<path d="M48.8213 17.5418C48.528 17.9312 48.2507 18.3339 47.9907 18.7471C47.5974 19.3698 47.7854 20.1939 48.408 20.5871C48.6294 20.7245 48.8733 20.7912 49.1174 20.7912C49.5601 20.7912 49.9933 20.5712 50.2468 20.1685C50.4682 19.8179 50.7027 19.4765 50.9521 19.1471C51.3948 18.5592 51.2774 17.7231 50.6894 17.2792C50.1001 16.8351 49.264 16.9565 48.8213 17.5418Z" fill="#D4C17F"/>
<path d="M61.3027 10.6939C60.8094 10.7312 60.3241 10.7898 59.8454 10.8686C59.1186 10.9886 58.6268 11.6753 58.7468 12.4018C58.8535 13.0551 59.4174 13.5178 60.06 13.5178C60.1321 13.5178 60.2041 13.5125 60.2774 13.5004C60.6841 13.4337 61.0933 13.3845 61.508 13.3525C62.2427 13.2951 62.7921 12.6539 62.7347 11.9192C62.6772 11.1858 62.0519 10.6312 61.3027 10.6939Z" fill="#D4C17F"/>
<path d="M66.236 2.92047C66.6507 2.98719 67.0639 3.06578 67.4719 3.15516C67.5692 3.17656 67.6639 3.18578 67.7586 3.18578C68.3719 3.18578 68.9227 2.76172 69.06 2.13906C69.2174 1.41906 68.7627 0.708441 68.0427 0.551098C67.5841 0.449848 67.1227 0.36313 66.6547 0.288442C65.928 0.168442 65.2453 0.668441 65.1294 1.39516C65.0133 2.12188 65.508 2.80578 66.236 2.92047Z" fill="#D4C17F"/>
<path d="M68.5172 11.6525C68.0572 11.4884 67.5892 11.3419 67.1158 11.2165C66.4078 11.0325 65.6758 11.4525 65.4852 12.1645C65.2972 12.8765 65.7211 13.6058 66.4331 13.7951C66.8345 13.9004 67.2291 14.0231 67.6158 14.1631C67.7652 14.2164 67.9158 14.2417 68.0664 14.2417C68.6131 14.2417 69.1264 13.9017 69.3211 13.3576C69.5706 12.6645 69.2092 11.9004 68.5172 11.6525Z" fill="#D4C17F"/>
<path d="M62.1239 21.3204C61.388 21.3578 60.8213 21.9831 60.8586 22.7178C60.8946 23.4537 61.4719 24.0137 62.256 23.9831C62.6653 23.9631 63.088 23.9751 63.4933 24.0164C63.54 24.0217 63.5866 24.0231 63.6321 24.0231C64.308 24.0231 64.8853 23.5125 64.9574 22.8271C65.032 22.0939 64.4988 21.4392 63.7667 21.3631C63.2266 21.3084 62.668 21.2912 62.1239 21.3204Z" fill="#D4C17F"/>
<path d="M77.6813 8.87247C77.9439 9.16044 78.3053 9.30716 78.6666 9.30716C78.988 9.30716 79.3092 9.19247 79.5652 8.95919C80.1092 8.46326 80.1478 7.61919 79.6519 7.07513C79.4919 6.90045 79.3292 6.72841 79.1652 6.56045C78.6478 6.03373 77.8052 6.02717 77.2798 6.5417C76.7519 7.05638 76.7452 7.90029 77.2584 8.42701C77.4027 8.57247 77.5439 8.72185 77.6813 8.87247Z" fill="#D4C17F"/>
<path d="M57.3333 50.6404H41.3334C40.596 50.6404 40.0001 51.2377 40.0001 51.9736C40.0001 52.7096 40.596 53.3069 41.3334 53.3069H57.3333C61.0719 53.3069 64 50.379 64 46.6402V43.9735C64 43.2376 63.4041 42.6402 62.6667 42.6402H17.3334C16.5961 42.6402 16.0001 43.2376 16.0001 43.9735V46.6402C16.0001 50.3788 18.9281 53.3069 22.6668 53.3069H34.6668V59.9736C34.6668 60.7096 35.2627 61.3069 36.0001 61.3069C36.7374 61.3069 37.3334 60.7096 37.3334 59.9736V51.9736C37.3334 51.2377 36.7374 50.6404 36.0001 50.6404H22.6668C20.4228 50.6404 18.6668 48.883 18.6668 46.6404V45.3071H61.3335V46.6404C61.3333 48.883 59.5772 50.6404 57.3333 50.6404Z" fill="#D4C17F"/>
<path d="M70.6466 31.4018C70.6599 31.5898 70.6666 31.7818 70.6666 31.9738C70.6666 32.7098 71.2625 33.3071 71.9999 33.3071C72.7372 33.3071 73.3332 32.7098 73.3332 31.9738C73.3332 31.7179 73.3238 31.4645 73.3052 31.2124C73.2532 30.4792 72.6292 29.9245 71.8811 29.9765C71.1466 30.0298 70.5946 30.6671 70.6466 31.4018Z" fill="#D4C17F"/>
<path d="M67.8306 24.0831C67.3439 24.6364 67.3974 25.4778 67.9492 25.9657C68.2586 26.2378 68.5478 26.5351 68.8092 26.8498C69.0746 27.1671 69.4533 27.3298 69.836 27.3298C70.136 27.3298 70.4386 27.2285 70.688 27.0218C71.2533 26.5498 71.3307 25.7098 70.8586 25.1432C70.5107 24.7245 70.1239 24.3273 69.7119 23.9645C69.1613 23.4792 68.3186 23.5298 67.8306 24.0831Z" fill="#D4C17F"/>
<path d="M41.3334 30.5657C41.3334 29.8298 40.7374 29.2324 40.0001 29.2324C39.2627 29.2324 38.6668 29.8298 38.6668 30.5657V32.0484C38.6668 32.7843 39.2627 33.3817 40.0001 33.3817C40.7374 33.3817 41.3334 32.7843 41.3334 32.0484V30.5657Z" fill="#D4C17F"/>
<path d="M40.0001 36.6404C39.2627 36.6404 38.6668 37.2377 38.6668 37.9737V38.6404C38.6668 39.3763 39.2627 39.9737 40.0001 39.9737C40.7374 39.9737 41.3334 39.3763 41.3334 38.6404V37.9737C41.3334 37.2377 40.7373 36.6404 40.0001 36.6404Z" fill="#D4C17F"/>
<path d="M45.3333 38.6404C45.3333 39.3763 45.9293 39.9737 46.6666 39.9737C47.404 39.9737 47.9999 39.3763 47.9999 38.6404V37.9737C47.9999 37.2377 47.404 36.6404 46.6666 36.6404C45.9293 36.6404 45.3333 37.2377 45.3333 37.9737V38.6404Z" fill="#D4C17F"/>
<path d="M41.3333 23.9739C41.3333 23.7632 41.336 23.5553 41.3427 23.3459C41.3586 22.7765 41.0107 22.2873 40.5121 22.0832C40.4615 22.0606 40.4041 22.0606 40.3507 22.0446C40.2507 22.0179 40.156 21.9779 40.048 21.9753C40.0348 21.9739 40.0227 21.9739 40.008 21.9739C40.0054 21.9739 40.0027 21.9753 40.0001 21.9753C39.9974 21.9753 39.9948 21.9739 39.9921 21.9739C39.9774 21.9739 39.9654 21.9739 39.9521 21.9753C39.8441 21.9779 39.748 22.0179 39.6494 22.0446C39.5962 22.0606 39.5374 22.0606 39.488 22.0832C38.9895 22.2873 38.6413 22.7765 38.6574 23.3459C38.6641 23.5553 38.6668 23.7632 38.6668 23.9739V24.6406C38.6668 25.3765 39.2627 25.9739 40.0001 25.9739C40.7374 25.9739 41.3333 25.3765 41.3333 24.6406V23.9739Z" fill="#D4C17F"/>
<path d="M32.0001 38.6404C32.0001 39.3763 32.596 39.9737 33.3334 39.9737C34.0707 39.9737 34.6667 39.3763 34.6667 38.6404V37.9737C34.6667 37.2377 34.0707 36.6404 33.3334 36.6404C32.596 36.6404 32.0001 37.2377 32.0001 37.9737V38.6404Z" fill="#D4C17F"/>
<path d="M33.3334 33.8671C34.0707 33.8671 34.6667 33.2698 34.6667 32.5338V31.1792C34.6667 30.4432 34.0707 29.8459 33.3334 29.8459C32.596 29.8459 32.0001 30.4432 32.0001 31.1792V32.5338C32.0001 33.2698 32.596 33.8671 33.3334 33.8671Z" fill="#D4C17F"/>
<path d="M28.0001 38.6404V37.9737C28.0001 37.2377 27.4042 36.6404 26.6668 36.6404C25.9295 36.6404 25.3335 37.2377 25.3335 37.9737V38.6404C25.3335 39.3763 25.9295 39.9737 26.6668 39.9737C27.4042 39.9737 28.0001 39.3765 28.0001 38.6404Z" fill="#D4C17F"/>
<path d="M9.31202 27.0218C9.56139 27.2285 9.86264 27.3298 10.164 27.3298C10.5467 27.3298 10.9254 27.1671 11.1908 26.8498C11.4522 26.5351 11.7414 26.2378 12.0508 25.9657C12.6028 25.4778 12.6561 24.6364 12.1694 24.0831C11.684 23.5298 10.8414 23.4764 10.288 23.9643C9.87592 24.327 9.4892 24.7243 9.13998 25.1431C8.66936 25.7098 8.7467 26.5498 9.31202 27.0218Z" fill="#D4C17F"/>
<path d="M73.3333 63.9738H45.3333V57.3071C45.3333 56.5711 44.7374 55.9738 44.0001 55.9738C43.2627 55.9738 42.6668 56.5711 42.6668 57.3071V65.3071C42.6668 66.043 43.2627 66.6403 44.0001 66.6403H72V73.307C72 75.5124 70.2053 77.307 68 77.307H12.0001C9.79483 77.307 8.00014 75.5124 8.00014 73.307V66.6403H38.7774C39.5148 66.6403 40.1107 66.043 40.1107 65.3071C40.1107 64.5711 39.5148 63.9738 38.7774 63.9738H6.66671C5.92936 63.9738 5.33343 64.5711 5.33343 65.3071V73.307C5.33343 76.983 8.32405 79.9738 12.0001 79.9738H68C71.6759 79.9738 74.6667 76.9831 74.6667 73.307V65.3071C74.6666 64.5711 74.0706 63.9738 73.3333 63.9738Z" fill="#D4C17F"/>
<path d="M32.0001 70.6403V73.307C32.0001 74.043 32.596 74.6403 33.3334 74.6403C34.0707 74.6403 34.6667 74.043 34.6667 73.307V70.6403C34.6667 69.9044 34.0707 69.3071 33.3334 69.3071C32.596 69.3071 32.0001 69.9044 32.0001 70.6403Z" fill="#D4C17F"/>
<path d="M1.39344 25.9751C1.3775 25.9737 1.36141 25.9737 1.34547 25.9737C0.63219 25.9737 0.0387539 26.5404 0.0148477 27.2604C0.00547271 27.4978 0.000160217 27.7351 0.000160217 27.9737C0.000160217 28.7096 0.596097 29.307 1.33344 29.307C2.07078 29.307 2.66672 28.7096 2.66672 27.9737C2.66672 27.7657 2.67203 27.5604 2.67875 27.3537C2.70406 26.6178 2.12938 26.0004 1.39344 25.9751Z" fill="#D4C17F"/>
<path d="M7.15343 17.4139C7.45202 17.1259 7.7628 16.8512 8.0828 16.5898C8.65342 16.1231 8.73874 15.2831 8.27217 14.7139C7.80686 14.1445 6.96686 14.0565 6.39624 14.5245C6.0189 14.8339 5.65218 15.1578 5.30296 15.4965C4.77234 16.0072 4.75765 16.8512 5.26827 17.3818C5.52968 17.6525 5.8789 17.7886 6.22827 17.7886C6.5614 17.7884 6.89608 17.6645 7.15343 17.4139Z" fill="#D4C17F"/>
<path d="M3.62812 19.6031C2.97078 19.2751 2.16672 19.539 1.83875 20.1978C1.62016 20.6325 1.41735 21.0792 1.2361 21.5337C0.962815 22.219 1.2961 22.9937 1.97875 23.267C2.14141 23.3323 2.30812 23.3629 2.47344 23.3629C3.00281 23.3629 3.50406 23.0456 3.71203 22.5243C3.86531 22.139 4.03609 21.7617 4.2214 21.3923C4.55203 20.7339 4.28671 19.9339 3.62812 19.6031Z" fill="#D4C17F"/>
<path d="M6.02937 5.56311C6.25468 5.56311 6.48406 5.50576 6.69343 5.38576C7.05484 5.17779 7.4214 4.9817 7.79608 4.79904C8.45608 4.47373 8.72811 3.67373 8.40405 3.01374C8.07874 2.35233 7.27734 2.08171 6.61874 2.40577C6.19202 2.61514 5.77343 2.8378 5.36281 3.07374C4.72546 3.4417 4.50547 4.25639 4.87343 4.89514C5.12015 5.32311 5.56937 5.56311 6.02937 5.56311Z" fill="#D4C17F"/>
<path d="M18.6667 70.6403V73.307C18.6667 74.043 19.2626 74.6403 20 74.6403C20.7373 74.6403 21.3332 74.043 21.3332 73.307V70.6403C21.3332 69.9044 20.7373 69.3071 20 69.3071C19.2626 69.3071 18.6667 69.9044 18.6667 70.6403Z" fill="#D4C17F"/>
<path d="M78.0212 23.2671C78.7039 22.9938 79.0372 22.2192 78.7639 21.5339C78.5825 21.0792 78.3798 20.6325 78.1612 20.1979C77.8319 19.5393 77.0306 19.2765 76.3719 19.6032C75.7133 19.9339 75.4478 20.7339 75.7786 21.3926C75.9639 21.762 76.1345 22.1393 76.288 22.5246C76.4959 23.046 76.9973 23.3632 77.5253 23.3632C77.6919 23.3631 77.8586 23.3324 78.0212 23.2671Z" fill="#D4C17F"/>
<path d="M79.9853 27.2604C79.9612 26.5231 79.308 25.9324 78.6067 25.9751C77.8708 26.0004 77.2961 26.6178 77.3214 27.3537C77.3281 27.5604 77.3334 27.7657 77.3334 27.9737C77.3334 28.7096 77.9294 29.307 78.6667 29.307C79.4041 29.307 80 28.7096 80 27.9737C80 27.7351 79.9945 27.4978 79.9853 27.2604Z" fill="#D4C17F"/>
<path d="M74.6359 3.0739C74.2266 2.83797 73.808 2.61531 73.3813 2.40594C72.7253 2.08328 71.9213 2.3539 71.5959 3.0139C71.2719 3.6739 71.5439 4.4739 72.2039 4.79921C72.5786 4.98187 72.9453 5.17796 73.3053 5.38593C73.5159 5.50593 73.7453 5.56327 73.9694 5.56327C74.4308 5.56327 74.88 5.32327 75.1267 4.89531C75.4945 4.25656 75.2745 3.44187 74.6359 3.0739Z" fill="#D4C17F"/>
<path d="M61.3333 73.307V70.6403C61.3333 69.9044 60.7374 69.3071 60 69.3071C59.2627 69.3071 58.6668 69.9044 58.6668 70.6403V73.307C58.6668 74.043 59.2627 74.6403 60 74.6403C60.7374 74.6403 61.3333 74.043 61.3333 73.307Z" fill="#D4C17F"/>
<path d="M48.0001 73.307V70.6403C48.0001 69.9044 47.4041 69.3071 46.6668 69.3071C45.9294 69.3071 45.3335 69.9044 45.3335 70.6403V73.307C45.3335 74.043 45.9294 74.6403 46.6668 74.6403C47.404 74.6403 48.0001 74.043 48.0001 73.307Z" fill="#D4C17F"/>
<path d="M73.6039 14.5245C73.0319 14.0565 72.1919 14.1445 71.728 14.7139C71.2613 15.2833 71.3466 16.1233 71.916 16.5898C72.2374 16.8512 72.548 17.1258 72.8466 17.4139C73.1039 17.6645 73.4386 17.7886 73.7719 17.7886C74.1213 17.7886 74.4692 17.6526 74.7319 17.3818C75.2425 16.8512 75.2278 16.0072 74.6972 15.4965C74.348 15.1578 73.9813 14.8339 73.6039 14.5245Z" fill="#D4C17F"/>
<path d="M8.11874 29.9765C7.35733 29.9259 6.74671 30.4792 6.69343 31.2124C6.67609 31.4645 6.66671 31.7177 6.66671 31.9738C6.66671 32.7098 7.26265 33.3071 7.99999 33.3071C8.73733 33.3071 9.33327 32.7098 9.33327 31.9738C9.33327 31.7818 9.33999 31.5898 9.35327 31.4018C9.40546 30.6671 8.85342 30.0298 8.11874 29.9765Z" fill="#D4C17F"/>
<path d="M26.4134 29.4445C25.6854 29.5404 25.1707 30.2098 25.2667 30.9404C25.3107 31.279 25.3334 31.6231 25.3334 31.9737V32.2043C25.3334 32.9416 25.9293 33.5376 26.6667 33.5376C27.404 33.5376 28 32.9416 28 32.2043V31.9737C28 31.5084 27.9706 31.0431 27.9106 30.5923C27.8134 29.8631 27.1573 29.3471 26.4134 29.4445Z" fill="#D4C17F"/>
<path d="M24.9067 4.02453C25.2987 4.1725 25.6853 4.33391 26.0667 4.50453C26.244 4.58453 26.4281 4.62187 26.6107 4.62187C27.1201 4.62187 27.6067 4.32859 27.8281 3.83391C28.1307 3.16188 27.8295 2.3725 27.1574 2.07125C26.7295 1.87922 26.2934 1.69797 25.8521 1.52985C25.1681 1.27391 24.3948 1.61516 24.1335 2.30453C23.8707 2.9925 24.2173 3.76188 24.9067 4.02453Z" fill="#D4C17F"/>
<path d="M24.3907 15.1125C24.7521 15.3125 25.1067 15.5271 25.4493 15.7551C25.6773 15.9084 25.9334 15.9804 26.1893 15.9804C26.6187 15.9804 27.0413 15.7737 27.2987 15.3898C27.7081 14.7778 27.5428 13.9486 26.9307 13.5392C26.5254 13.2686 26.1067 13.0139 25.6774 12.7778C25.0307 12.4245 24.2215 12.6565 23.8654 13.3018C23.5107 13.9457 23.7467 14.7578 24.3907 15.1125Z" fill="#D4C17F"/>
<path d="M1.33344 9.30717C1.69484 9.30717 2.05609 9.16045 2.31875 8.87248C2.45609 8.72186 2.5975 8.57248 2.7414 8.42717C3.25468 7.90046 3.24671 7.05655 2.72 6.54187C2.19594 6.02718 1.35328 6.03655 0.834688 6.56062C0.670626 6.72858 0.50797 6.90061 0.347971 7.0753C-0.147966 7.61936 -0.109372 8.46327 0.434689 8.95936C0.690782 9.19248 1.01203 9.30717 1.33344 9.30717Z" fill="#D4C17F"/>
<path d="M22.292 25.6951C22.6173 25.9537 22.9226 26.2365 23.2 26.5351C23.464 26.8192 23.82 26.9618 24.1786 26.9618C24.5026 26.9618 24.8279 26.8445 25.0865 26.6059C25.6253 26.1059 25.6559 25.2618 25.1559 24.7218C24.7865 24.3245 24.3812 23.9485 23.9506 23.6071C23.3706 23.1485 22.5333 23.2457 22.0773 23.8218C21.6187 24.3978 21.7147 25.2365 22.292 25.6951Z" fill="#D4C17F"/>
<path d="M29.7534 20.1684C30.0067 20.5711 30.4401 20.7911 30.8828 20.7911C31.1268 20.7911 31.3707 20.7243 31.5921 20.587C32.2148 20.1937 32.4028 19.3696 32.0095 18.747C31.7481 18.3337 31.4707 17.9311 31.1788 17.5417C30.7348 16.9564 29.9003 16.835 29.3109 17.279C28.7229 17.7231 28.6056 18.559 29.0482 19.147C29.2973 19.4765 29.532 19.8178 29.7534 20.1684Z" fill="#D4C17F"/>
<path d="M30.3693 7.08576C30.6999 7.34045 31.024 7.60717 31.3399 7.8817C31.592 8.1017 31.904 8.20842 32.2146 8.20842C32.5867 8.20842 32.9573 8.05373 33.2199 7.75107C33.704 7.19513 33.6453 6.35248 33.0893 5.86967C32.7346 5.55904 32.3693 5.26029 31.9946 4.97233C31.412 4.5217 30.576 4.63233 30.1253 5.21639C29.6773 5.80045 29.7854 6.63654 30.3693 7.08576Z" fill="#D4C17F"/>
<path d="M12.2414 3.18578C12.3361 3.18578 12.4308 3.17641 12.5267 3.15516C12.9361 3.06578 13.3494 2.98719 13.764 2.92047C14.492 2.80579 14.9867 2.12188 14.8708 1.39516C14.7561 0.668445 14.0748 0.167196 13.3454 0.288446C12.8775 0.363134 12.4148 0.449852 11.9575 0.551102C11.2375 0.708445 10.7828 1.41907 10.9401 2.13907C11.0773 2.76188 11.6281 3.18578 12.2414 3.18578Z" fill="#D4C17F"/>
<path d="M18.7934 2.68984C19.2148 2.71921 19.632 2.75921 20.044 2.81124C20.1 2.81796 20.1573 2.82187 20.212 2.82187C20.8747 2.82187 21.4493 2.32859 21.5332 1.65515C21.6265 0.924526 21.1079 0.257809 20.3773 0.165778C19.9132 0.107184 19.444 0.0604654 18.9706 0.0298405C18.252 -0.0234407 17.5986 0.536558 17.5506 1.27124C17.5028 2.00577 18.0573 2.64046 18.7934 2.68984Z" fill="#D4C17F"/>
<path d="M32.6454 23.1392C31.9268 23.3018 31.476 24.0151 31.6387 24.7339C31.7307 25.1338 31.8027 25.5392 31.8587 25.9498C31.9507 26.6192 32.5227 27.1045 33.1801 27.1045C33.2401 27.1045 33.3001 27.1004 33.3601 27.0912C34.0895 26.9926 34.6015 26.3206 34.5027 25.5912C34.436 25.1032 34.3481 24.6206 34.2413 24.1445C34.0787 23.4271 33.3601 22.9778 32.6454 23.1392Z" fill="#D4C17F"/>
<path d="M11.9334 14.2418C12.0828 14.2418 12.2348 14.2165 12.384 14.1632C12.7708 14.0232 13.1654 13.9006 13.5667 13.7953C14.2787 13.6059 14.7026 12.8767 14.5147 12.1647C14.3253 11.4526 13.5947 11.0326 12.884 11.2167C12.4108 11.342 11.9426 11.4887 11.4826 11.6526C10.7906 11.9006 10.4294 12.6647 10.6786 13.3579C10.8734 13.9018 11.3867 14.2418 11.9334 14.2418Z" fill="#D4C17F"/>
<path d="M18.492 13.3525C18.9067 13.3845 19.3161 13.4339 19.7226 13.5004C19.7959 13.5125 19.8679 13.5178 19.94 13.5178C20.5814 13.5178 21.1467 13.0551 21.2532 12.4019C21.3732 11.6751 20.8812 10.9886 20.1547 10.8686C19.6761 10.79 19.1906 10.7312 18.6973 10.6939C17.972 10.6298 17.3226 11.1845 17.2653 11.9192C17.2081 12.6539 17.7573 13.2951 18.492 13.3525Z" fill="#D4C17F"/>
<path d="M16.3681 24.0231C16.4134 24.0231 16.4601 24.0217 16.5067 24.0164C16.912 23.975 17.3347 23.9631 17.744 23.9831C18.5108 24.0178 19.1054 23.4537 19.1414 22.7178C19.1787 21.9831 18.612 21.3578 17.8761 21.3204C17.3308 21.291 16.772 21.3084 16.2334 21.3631C15.5014 21.439 14.9681 22.0937 15.0428 22.8271C15.1147 23.5125 15.692 24.0231 16.3681 24.0231Z" fill="#D4C17F"/>
</g>
<defs>
<clipPath id="clip0">
<rect width="80" height="80" fill="white"/>
</clipPath>
</defs>
</svg>
